<svg version="1.1" id="Layer_1" xmlns="http://www.w3.org/2000/svg" xmlns:xlink="http://www.w3.org/1999/xlink" x="0px" y="0px"
	 width="100%" viewBox="0 0 1024 496" enable-background="new 0 0 1024 496" xml:space="preserve">
<path fill="#CCFF00" opacity="1.000000" stroke="none" 
	d="
M331.950470,315.992310 
	C336.980560,306.030396 341.840942,296.398193 347.003326,286.167511 
	C340.921234,286.069122 336.184326,288.260406 331.364838,289.631958 
	C302.670502,297.798004 273.594604,304.083618 243.975876,307.678223 
	C235.722595,308.679871 227.366196,309.052612 219.088074,307.425781 
	C218.110764,307.233734 217.123657,307.043671 216.180878,306.732239 
	C211.822342,305.292389 207.379349,303.681488 206.479416,298.458008 
	C205.640701,293.589752 208.751328,290.351501 212.129730,287.454742 
	C220.045471,280.667480 229.104050,275.736816 238.508392,271.406097 
	C264.119141,259.612366 290.746704,250.576309 317.662079,242.326324 
	C335.645844,236.814026 353.610443,231.238907 371.615112,225.795959 
	C374.077484,225.051559 375.581299,223.724808 376.624786,221.416870 
	C387.463013,197.445770 398.187286,173.328293 406.223724,148.351349 
	C409.323059,138.718826 412.664215,129.098419 415.854065,119.460327 
	C416.376404,117.882088 417.081757,116.364960 417.686859,114.813477 
	C418.873505,111.770844 421.066895,110.101433 424.301392,110.934952 
	C427.750977,111.823898 428.456024,114.903427 427.775116,117.747948 
	C426.227325,124.213676 424.463348,130.657104 422.295135,136.939758 
	C413.162354,163.402832 402.273773,189.175385 391.275177,214.901001 
	C390.632874,216.403336 390.128448,217.964645 389.407959,219.908325 
	C393.159821,220.432922 396.248383,219.115784 399.326019,218.302429 
	C440.191620,207.502548 481.337158,197.933472 522.870056,190.062576 
	C528.094727,189.072449 533.380554,188.404190 538.638611,187.590485 
	C542.307739,187.022675 545.596008,185.786575 548.627747,183.439575 
	C566.128601,169.891678 582.277161,155.092758 593.644592,135.776886 
	C607.928223,111.505669 604.008606,88.444374 582.396912,70.216026 
	C566.448853,56.764664 547.468262,49.781013 527.478271,45.199997 
	C493.839691,37.491203 459.685486,34.829639 425.294281,36.389965 
	C368.893036,38.948891 313.263184,46.579380 259.490570,64.630783 
	C239.206650,71.440079 219.829224,80.359558 202.463608,93.054375 
	C196.207367,97.627884 189.852249,102.335495 186.813416,110.070053 
	C185.830368,112.572121 183.452621,112.683807 181.308182,111.497986 
	C178.643387,110.024406 178.121002,107.601601 179.660110,105.107979 
	C182.828705,99.974289 186.796997,95.556511 191.606766,91.809746 
	C208.876541,78.356796 228.264236,68.843819 248.574249,61.100025 
	C277.475128,50.080727 307.586151,43.804752 337.969299,38.577679 
	C358.799408,34.994102 379.764221,32.418823 400.812500,30.941534 
	C429.193390,28.949604 457.585236,27.997753 486.031250,31.279940 
	C506.587250,33.651752 526.929260,36.685772 546.743835,42.716187 
	C565.965576,48.566154 583.646851,57.234657 597.621277,72.100639 
	C615.193115,90.793571 617.215027,117.031799 603.100281,139.938110 
	C593.735962,155.135223 581.452698,167.758179 568.122192,179.446884 
	C567.254089,180.208023 566.277466,180.845337 564.553528,182.138763 
	C567.757935,183.082886 569.823425,182.655228 571.829163,182.369141 
	C607.262573,177.315048 642.786682,173.270813 678.566284,171.503571 
	C691.561768,170.861710 704.535278,170.623276 717.529663,170.758270 
	C719.352539,170.777191 721.194580,170.949615 722.986938,171.275345 
	C724.392639,171.530777 726.354492,171.669083 726.224670,173.672043 
	C726.086243,175.808014 724.100586,176.023666 722.444946,176.089554 
	C719.783630,176.195450 717.113770,176.116943 714.448120,176.074463 
	C693.810913,175.745697 673.292419,177.280304 652.725891,178.960495 
	C635.128906,180.398087 617.651733,182.720749 600.115784,184.546677 
	C585.087769,186.111496 570.189880,188.933716 555.239563,191.232498 
	C552.709106,191.621582 550.568787,192.973953 548.534851,194.427475 
	C517.448730,216.643311 483.179810,232.954758 448.348816,248.154831 
	C420.874420,260.144501 392.882324,270.834564 364.256256,279.784851 
	C361.328369,280.700287 359.980225,282.663788 358.781830,285.103638 
	C343.870483,315.462311 327.812134,345.210907 311.360596,374.758392 
	C302.289215,391.050964 293.670898,407.595764 284.844879,424.024963 
	C284.371857,424.905487 283.911804,425.797974 283.368805,426.634979 
	C281.562073,429.419952 278.946777,431.302063 275.870392,429.490875 
	C272.910706,427.748352 273.533997,424.694397 275.044098,421.955750 
	C280.272064,412.474701 285.396332,402.935242 290.723572,393.510437 
	C305.069092,368.130615 318.670685,342.357635 331.950470,315.992310 
M264.308289,297.655853 
	C292.077698,292.877777 319.187378,285.477234 346.162109,277.447113 
	C350.704285,276.095001 353.244629,273.693085 355.059998,269.727112 
	C359.770020,259.437317 364.595978,249.200516 369.286896,238.902115 
	C369.981232,237.377792 371.507629,235.790909 369.842987,233.720428 
	C369.086761,233.843170 368.262146,233.892029 367.487640,234.114883 
	C327.172119,245.715652 287.041534,257.901520 248.476196,274.597961 
	C237.956757,279.152252 227.670639,284.422943 219.198746,292.468658 
	C217.792831,293.803833 215.792801,295.150665 216.424591,297.429321 
	C217.119385,299.935242 219.768555,299.833984 221.753082,300.495789 
	C222.525742,300.753479 223.395172,300.743744 224.224289,300.806000 
	C237.453491,301.799377 250.443909,299.650116 264.308289,297.655853 
M390.266174,262.688843 
	C438.682251,244.713867 486.114136,224.685562 529.473328,196.060501 
	C509.968170,198.657028 490.841461,202.839951 471.723724,207.140396 
	C444.120422,213.349625 416.732605,220.382568 389.437988,227.806625 
	C386.496521,228.606705 384.490662,230.127716 383.213043,232.980011 
	C378.314026,243.917007 373.227722,254.770126 368.327179,265.706482 
	C367.720276,267.060913 366.118652,268.360626 367.471039,270.640564 
	C374.809540,268.072998 382.165680,265.499268 390.266174,262.688843 
z"/>
<path fill="#CCFF00" opacity="1.000000" stroke="none" 
	d="
M851.067261,245.797485 
	C845.677734,248.388992 840.613464,250.925491 835.476562,253.305145 
	C832.836060,254.528366 832.154907,256.105164 833.376404,258.844421 
	C834.313354,260.945587 834.882263,263.251343 835.332764,265.522095 
	C837.483215,276.362274 835.059448,281.409454 825.012695,285.717072 
	C815.810913,289.662384 806.139771,291.051697 796.181885,289.240997 
	C792.461853,288.564575 789.032227,287.145142 787.639771,283.212402 
	C786.221313,279.206024 788.213318,276.119751 790.817078,273.326782 
	C797.968445,265.655823 807.226013,260.859283 815.810669,255.160858 
	C818.205627,253.571075 819.366272,252.224289 816.629883,249.466766 
	C811.157715,253.704468 805.585938,257.855957 799.525696,261.254364 
	C794.565063,264.036133 789.466125,266.470306 783.699097,267.086761 
	C775.629517,267.949341 771.357544,263.119659 773.376648,255.168198 
	C774.234375,251.790222 775.597046,248.542892 776.653442,245.211807 
	C777.134521,243.695038 778.307373,242.241699 777.242737,240.261246 
	C774.037598,239.975052 771.699158,242.068680 769.302612,243.661240 
	C760.235535,249.686523 752.497070,257.269867 744.776978,264.878784 
	C739.713196,269.869598 737.071655,269.642456 732.338196,264.031464 
	C727.365601,265.234100 722.505920,267.796875 716.987793,266.747192 
	C710.944397,265.597626 709.552490,260.236633 706.986633,255.536438 
	C701.892273,259.215668 697.850281,263.799774 692.265625,266.168732 
	C688.120911,267.926849 684.072937,269.645142 679.293518,268.517303 
	C673.558838,267.164093 670.040466,264.192047 670.407288,256.616638 
	C662.090820,261.647034 652.518799,261.973480 649.441833,273.184265 
	C645.000549,289.365845 639.659424,305.374542 632.278687,320.541901 
	C624.875305,335.755981 615.194397,348.932678 598.174438,354.385498 
	C584.655029,358.716827 570.925598,358.334961 557.289856,354.715576 
	C550.049377,352.793640 542.889038,350.647949 536.502625,346.439880 
	C525.812012,339.395752 524.763611,330.167114 533.867126,321.177551 
	C546.031982,309.164948 561.119019,301.576752 575.965881,293.689087 
	C596.128967,282.977112 617.347351,274.481995 637.947205,264.678589 
	C641.909302,262.793060 643.226807,260.217499 643.493652,255.809128 
	C631.634583,261.681549 619.797913,272.414154 609.205261,253.942276 
	C606.065063,256.246948 602.775085,258.657898 599.489014,261.074158 
	C594.314026,264.879242 588.608337,267.490326 582.300110,268.769745 
	C571.943542,270.870239 566.091858,265.723053 567.898926,255.399475 
	C569.443787,246.573975 573.959229,238.863983 579.115906,231.645065 
	C580.690491,229.440750 583.264587,227.935074 586.091492,229.723480 
	C589.139587,231.651810 587.937683,234.326706 586.774109,236.804016 
	C584.088196,242.522385 580.654419,247.894775 578.974487,254.076691 
	C577.486572,259.552338 578.952637,261.575958 584.129028,259.522766 
	C596.718262,254.529266 608.960754,248.747589 614.571533,234.939148 
	C616.084473,231.215698 618.187927,227.802277 620.596985,224.605591 
	C622.412292,222.196808 624.921753,221.268875 627.612183,222.950470 
	C630.151428,224.537521 629.416687,226.944214 628.426025,229.189682 
	C626.545532,233.452087 624.580322,237.678802 622.786987,241.977341 
	C621.692200,244.601318 621.114319,247.396851 621.052856,250.251678 
	C620.943726,255.320358 623.254395,256.940186 627.998230,254.917999 
	C636.528015,251.281998 641.375122,243.617767 647.062561,236.943329 
	C650.187683,233.275879 652.943665,229.275131 655.054810,224.887177 
	C655.412537,224.143570 655.859314,223.413284 656.397095,222.791107 
	C658.326355,220.559189 660.816956,219.460358 663.512756,220.881454 
	C666.327393,222.365128 666.543762,224.999237 665.380249,227.812561 
	C661.755249,236.577209 658.665222,245.523941 655.871277,255.752945 
	C664.319763,251.274689 672.999756,249.497940 678.923645,241.761475 
	C686.754456,231.534760 696.797913,223.900055 709.813416,221.084702 
	C715.298340,219.898239 720.309448,221.608597 722.693604,225.431427 
	C724.259949,227.942932 724.717957,230.687668 722.249084,232.653732 
	C720.052551,234.402985 717.462952,233.939819 715.659973,231.608032 
	C714.086243,229.572800 712.317261,229.158112 709.971130,230.089523 
	C698.354431,234.701187 689.727051,242.695847 683.635925,253.475174 
	C682.831238,254.899124 681.495728,257.002899 683.455261,258.453156 
	C685.100525,259.670837 686.956360,258.626556 688.604492,257.744049 
	C695.622498,253.986130 700.961975,248.200867 706.654236,242.838776 
	C708.712952,240.899460 710.692078,238.824219 713.385376,237.744141 
	C715.487488,236.901199 717.572571,236.667343 719.475403,238.352158 
	C721.378906,240.037567 721.434387,241.958908 720.663696,244.244232 
	C719.815430,246.759552 719.092224,249.347778 718.643311,251.960724 
	C717.687317,257.524994 720.845215,260.241089 726.357483,258.410187 
	C734.220581,255.798477 739.262024,249.768753 743.610168,243.139343 
	C745.796814,239.805557 747.712036,236.274780 749.515198,232.714172 
	C751.085449,229.613525 752.973450,227.080444 756.809143,228.496780 
	C760.712708,229.938171 760.593445,233.063568 759.314514,236.383270 
	C759.033508,237.112778 758.891052,237.895706 758.643555,238.805923 
	C761.572876,239.200623 763.201294,237.277344 765.085266,236.110626 
	C769.945923,233.100540 775.015320,230.534317 780.714417,229.778519 
	C787.752014,228.845200 791.657166,233.169754 789.947937,240.044632 
	C788.907898,244.227982 787.203552,248.244171 785.848572,252.352264 
	C785.331421,253.920242 784.599854,255.670929 785.992004,257.054474 
	C787.260071,258.314697 788.813110,257.417755 790.225708,256.998352 
	C798.370422,254.580048 805.132202,249.697418 811.904053,244.831085 
	C813.622864,243.595901 814.087158,242.026016 813.395081,240.020325 
	C812.852661,238.448349 812.306213,236.856354 811.997437,235.228500 
	C809.348572,221.267136 821.225525,211.087723 834.712585,215.742371 
	C837.648560,216.755630 840.117004,218.401337 841.306030,221.427444 
	C842.122253,223.504883 841.891663,225.488953 839.788208,226.641006 
	C837.855530,227.699509 835.659973,227.701324 834.526245,225.571533 
	C832.533875,221.828796 829.936218,220.261856 826.048157,222.562927 
	C822.154663,224.867233 820.777893,228.363190 821.954468,232.789185 
	C822.040039,233.111160 822.134277,233.430862 822.224854,233.751495 
	C823.504333,238.280182 824.878662,243.355438 828.234802,246.196716 
	C832.604736,249.896332 836.307495,243.862686 840.596313,243.047379 
	C842.842102,242.620422 844.862732,240.927139 847.105225,240.578537 
	C856.551086,239.110138 860.532837,232.532486 864.106445,224.540665 
	C875.726440,198.554382 887.881714,172.807404 899.844482,146.974579 
	C900.684021,145.161621 901.614563,143.389664 902.537354,141.616623 
	C903.886475,139.024490 906.066162,137.903625 908.757568,139.055511 
	C911.788696,140.352814 911.354736,142.880051 910.362854,145.425186 
	C904.555176,160.325836 898.182190,174.978973 891.307922,189.419037 
	C885.509705,201.598938 879.809204,213.825378 874.084106,226.039948 
	C873.676086,226.910339 873.420898,227.852371 872.604309,230.126892 
	C875.896790,227.909836 878.167114,226.446609 880.368103,224.885513 
	C885.014526,221.589905 889.853821,218.659164 895.455933,217.323090 
	C902.113342,215.735306 906.524292,218.597488 907.899170,225.307556 
	C908.974854,230.557571 907.133972,235.519043 906.312927,240.587616 
	C905.749268,244.066986 903.131653,248.338120 906.503601,250.860367 
	C909.485107,253.090500 913.024719,249.782898 916.222412,248.652390 
	C924.175415,245.840714 929.856262,240.703140 932.695984,232.527863 
	C933.669128,229.726456 935.289612,227.127182 936.792419,224.538925 
	C938.247681,222.032547 940.648071,221.164719 943.217896,222.376755 
	C945.780029,223.585205 946.708618,226.068283 945.688354,228.708801 
	C943.830322,233.517914 941.686584,238.217392 939.631592,242.949387 
	C937.238464,248.460052 935.113953,254.056686 934.048340,259.998871 
	C933.792297,261.427063 932.936584,263.076294 934.489685,264.157654 
	C936.170532,265.328064 937.685303,264.106598 939.067017,263.237976 
	C945.486511,259.202148 950.696167,253.796722 955.678162,248.184723 
	C961.539001,241.582703 967.229858,234.830032 973.025024,228.169342 
	C974.443176,226.539291 975.877869,224.943253 978.300659,224.712219 
	C983.097351,224.254791 985.647644,227.778564 983.581360,232.539886 
	C980.721985,239.128540 978.083740,245.761627 976.812256,252.866943 
	C976.431091,254.997360 975.681946,257.284363 977.870422,258.835114 
	C979.834412,260.226837 981.779968,258.925903 983.511047,258.109650 
	C992.478882,253.881149 1000.105347,247.649734 1007.846497,241.592194 
	C1009.314270,240.443649 1010.749756,237.941071 1012.860535,239.687576 
	C1015.161377,241.591431 1013.278381,243.838165 1011.942322,245.359268 
	C1003.716431,254.724136 994.243896,262.670380 982.518799,267.111847 
	C972.078979,271.066467 965.795715,266.532227 964.786926,255.355164 
	C964.730957,254.734833 964.545959,254.126144 964.045898,251.667160 
	C960.405212,255.719757 957.737610,259.065582 954.680420,262.006439 
	C949.752014,266.747406 944.567017,271.259369 937.847168,273.350952 
	C928.632141,276.219116 922.315186,271.180725 922.744446,261.526642 
	C922.861267,258.898071 924.338196,256.389648 923.357300,253.425171 
	C921.031494,253.026352 919.385010,254.682877 917.590027,255.617188 
	C913.429138,257.782990 909.201233,259.733795 904.541565,260.477753 
	C896.794556,261.714722 891.789978,256.779266 893.137085,249.039368 
	C894.077393,243.636398 895.566895,238.330322 896.566833,232.935699 
	C896.938110,230.932861 897.907166,228.344437 895.599854,226.964890 
	C893.571838,225.752380 891.803162,227.583420 890.220154,228.654739 
	C876.296143,238.077896 866.090393,250.965927 856.829285,264.718811 
	C856.085632,265.823181 855.426331,266.990479 854.616272,268.042694 
	C852.616028,270.640961 850.003174,271.503174 847.174805,269.712646 
	C844.458374,267.992950 844.469238,265.395508 845.794312,262.661041 
	C847.973206,258.164490 850.160645,253.669357 852.188843,249.104477 
	C852.688110,247.980865 854.655579,246.065659 851.067261,245.797485 
M629.278320,300.844177 
	C632.137878,291.931122 635.867188,283.270081 637.761108,274.240387 
	C635.327026,272.817535 633.865906,274.022064 632.431335,274.647827 
	C610.761597,284.100586 589.174377,293.747070 568.559509,305.373779 
	C558.851196,310.849243 549.196655,316.486145 541.277161,324.554718 
	C533.311707,332.670135 536.220032,338.180481 545.014404,342.857574 
	C551.786255,346.459076 559.264282,348.270264 566.863953,349.618805 
	C588.190491,353.403229 604.990845,346.666229 616.546509,328.225891 
	C621.763733,319.900421 625.542847,310.780548 629.278320,300.844177 
M814.336853,279.941925 
	C825.389587,276.431305 828.074097,269.914398 821.361572,261.271271 
	C813.339844,266.865021 803.808350,270.519165 797.799500,279.527466 
	C803.574219,283.076202 808.583618,280.924377 814.336853,279.941925 
z"/>
<path fill="#CCFF00" opacity="1.000000" stroke="none" 
	d="
M561.467346,234.951965 
	C561.636597,230.238556 559.380554,229.836929 556.018738,231.219421 
	C547.757263,234.616806 541.384033,240.423935 536.015930,247.342499 
	C532.038025,252.469315 528.489075,257.927216 524.676270,263.184845 
	C523.413818,264.925751 522.061279,266.647003 520.504272,268.117065 
	C518.575317,269.938263 516.402832,269.197876 514.569336,267.860046 
	C512.787659,266.560059 512.953247,264.753723 513.905029,262.939880 
	C520.867615,249.671219 527.812866,236.393433 534.790527,223.132690 
	C535.871826,221.077713 537.543945,219.751877 539.990540,219.895645 
	C543.960876,220.128983 544.021179,223.668076 544.995850,226.319031 
	C547.879639,226.719574 549.851501,224.753372 552.249756,224.239456 
	C555.175110,223.612549 558.026306,222.741791 561.066895,222.642151 
	C565.141663,222.508621 568.937439,223.056824 570.716064,227.250534 
	C572.583191,231.652847 570.558899,235.426147 567.792175,238.714798 
	C566.413025,240.354156 564.377808,241.893677 562.116394,240.722977 
	C559.734070,239.489731 561.097473,237.225098 561.467346,234.951965 
z"/>
<path fill="#CCFF00" opacity="1.000000" stroke="none" 
	d="
M602.759521,205.854950 
	C600.698181,211.458313 597.607605,215.893967 592.752197,218.820419 
	C591.127197,219.799850 589.106323,220.880463 587.259460,219.106735 
	C585.620300,217.532440 586.354553,215.686523 587.168640,214.047989 
	C588.861145,210.641403 590.697388,207.306381 592.466980,203.937973 
	C593.712585,201.567017 595.463928,199.819321 598.333862,200.247284 
	C601.199280,200.674591 602.420715,202.792511 602.759521,205.854950 
z"/>
</svg>